<?xml version="1.0" standalone="no"?>
<!DOCTYPE svg PUBLIC "-//W3C//DTD SVG 20010904//EN"
 "http://www.w3.org/TR/2001/REC-SVG-20010904/DTD/svg10.dtd">
<svg version="1.0" xmlns="http://www.w3.org/2000/svg"
 width="1080.000000pt" height="1350.000000pt" viewBox="0 0 1080.000000 1350.000000"
 preserveAspectRatio="xMidYMid meet">

<g transform="translate(0.000000,1350.000000) scale(0.100000,-0.100000)"
fill="#000000" stroke="none">
<path d="M0 11756 l0 -1743 31 -7 c17 -3 61 -6 98 -6 74 0 376 -22 636 -45
193 -18 333 -37 485 -66 58 -11 128 -20 155 -20 28 0 88 -11 135 -24 375 -107
446 -124 539 -131 64 -6 89 -12 108 -28 28 -25 24 -48 -13 -65 -38 -17 -58
-14 -177 24 -140 46 -463 96 -952 150 -324 35 -850 75 -987 75 l-58 0 0 -364
0 -363 463 -1 c473 0 618 -8 807 -42 86 -15 175 -20 500 -24 217 -4 451 -11
520 -16 492 -37 833 -43 876 -15 43 28 139 12 268 -44 47 -21 56 -21 184 -11
218 17 388 -7 567 -80 106 -44 113 -46 229 -60 139 -17 126 17 126 -331 0
-260 -2 -300 -15 -306 -9 -3 -95 2 -193 11 -313 29 -554 37 -1140 36 -316 0
-577 -2 -581 -5 -4 -2 -70 -5 -147 -6 -287 -4 -529 -31 -598 -66 -74 -37 -192
-136 -340 -287 -157 -158 -216 -232 -216 -268 0 -25 77 -178 98 -195 9 -7 28
-18 41 -24 28 -11 701 -27 1561 -35 587 -5 608 -5 705 16 185 38 379 61 600
70 121 5 221 9 221 9 1 1 5 29 8 64 7 59 25 115 26 76 0 -22 37 -27 280 -39
269 -13 679 -13 884 0 192 13 242 21 238 39 -1 7 4 18 12 25 8 6 17 31 18 56
l4 45 18 -40 c10 -22 23 -80 28 -130 5 -49 14 -92 19 -96 6 -3 83 -9 172 -13
297 -12 620 -59 693 -100 21 -12 47 -34 58 -49 25 -34 24 197 12 -2367 -7
-1450 -12 -1905 -21 -1936 -17 -58 -58 -108 -129 -158 -71 -50 -109 -68 -191
-89 -70 -19 -302 -47 -395 -48 -63 -1 -64 -1 -30 -12 l35 -11 -35 -4 c-22 -2
-38 2 -45 12 -10 13 -134 15 -1006 19 -1077 4 -1077 4 -1345 62 -126 28 -190
56 -259 117 -83 73 -80 51 -80 591 0 516 2 496 -52 497 -12 0 -24 4 -28 9 -7
12 33 41 57 41 12 0 18 11 23 43 3 23 4 492 3 1042 l-3 1000 -740 0 c-789 0
-811 1 -920 49 -82 37 -160 122 -232 256 -35 63 -71 128 -80 143 -17 27 -17
29 1 43 11 8 23 14 28 14 19 0 75 -64 151 -175 71 -104 89 -123 132 -145 l50
-25 710 2 c391 2 753 6 805 10 l95 8 2 175 c2 96 0 194 -3 218 l-5 42 -967 0
c-860 0 -970 2 -990 16 -12 8 -22 19 -22 24 0 16 -47 113 -74 153 -14 21 -26
40 -26 43 0 3 -9 14 -20 26 -11 12 -20 30 -20 40 0 21 -38 100 -52 109 -5 3
-9 10 -7 15 1 5 -8 13 -20 19 -11 5 -21 15 -21 22 0 7 -4 13 -10 13 -5 0 -10
-5 -10 -11 0 -8 -5 -7 -15 1 -9 7 -14 19 -11 27 4 9 -3 13 -19 13 -15 0 -25 6
-25 14 0 14 -59 31 -97 27 -14 -1 -24 5 -28 18 -7 23 -21 27 -28 9 -3 -9 -11
-7 -28 8 -13 12 -30 19 -37 17 -8 -3 -20 4 -28 16 -18 25 -112 52 -229 65 -16
2 -45 8 -63 14 -18 6 -30 7 -27 1 10 -15 -22 -10 -35 6 -9 11 -22 14 -42 10
-17 -4 -35 -2 -43 5 -8 6 -23 9 -34 5 -20 -6 -90 12 -101 26 -3 4 -18 9 -35
10 -16 2 -36 10 -43 16 -9 9 -19 10 -32 3 -14 -7 -23 -6 -35 7 -12 11 -32 16
-66 14 -27 -1 -49 3 -49 8 0 4 -25 9 -55 9 l-55 0 0 -179 c0 -112 4 -179 10
-180 6 -1 13 -2 18 -3 4 -2 52 -6 107 -10 55 -3 161 -13 235 -21 74 -8 171
-17 215 -20 142 -11 502 -54 527 -63 12 -5 41 -15 63 -22 51 -17 84 -41 85
-61 0 -25 -156 -24 -370 0 -96 11 -254 25 -350 31 -96 5 -242 15 -325 20 -82
5 -165 10 -182 10 l-33 0 0 -412 0 -413 467 2 c478 3 613 11 748 49 71 20 183
19 313 -1 96 -15 116 -21 128 -41 14 -20 14 -26 0 -52 -25 -49 -62 -66 -256
-116 l-95 -25 -652 -3 -653 -3 0 -3017 0 -3018 5400 0 5400 0 0 619 c0 582 -1
620 -17 625 -10 2 -60 10 -111 17 -51 6 -90 14 -88 16 5 5 169 -14 199 -23 16
-5 17 132 17 2779 l0 2784 -272 6 c-150 4 -455 10 -678 14 l-405 8 230 7 c127
4 255 9 285 11 72 6 459 17 575 17 138 -1 165 -3 165 -12 0 -4 23 -8 50 -8
l50 0 0 750 0 750 -447 0 c-394 1 -445 2 -423 15 14 8 21 15 15 16 -5 0 8 7
29 13 22 7 42 18 44 25 2 6 0 11 -5 10 -4 -1 -10 0 -13 1 -24 9 -64 13 -185
19 l-140 6 205 8 c113 4 366 10 563 14 l357 6 0 229 0 229 -222 -6 c-334 -10
-1196 -9 -1598 1 -257 7 -376 6 -430 -2 -135 -21 -136 -18 -145 311 -3 143 -8
301 -11 350 -2 50 -6 551 -9 1115 -2 564 -8 1120 -11 1235 -9 277 -6 358 17
560 10 94 19 198 19 232 0 34 4 84 10 110 9 43 22 250 36 541 l4 102 -1034 0
-1034 0 5 -21 c7 -26 -13 -67 -49 -99 -21 -19 -27 -31 -22 -47 8 -29 16 -29
30 0 61 123 91 157 142 157 32 0 69 -37 101 -102 49 -98 41 -176 -27 -262 -26
-31 -30 -42 -21 -58 6 -11 9 -31 6 -44 -2 -13 -1 -21 3 -19 4 3 13 -2 20 -10
7 -8 23 -15 37 -15 41 0 79 -27 113 -79 46 -72 49 -114 14 -191 -23 -51 -28
-78 -29 -139 0 -70 3 -80 32 -123 18 -26 33 -53 33 -61 0 -18 -27 -30 -43 -20
-13 8 -18 9 -54 11 -12 1 -46 25 -76 52 -59 54 -52 39 -114 248 -11 40 -12 57
-4 65 6 6 11 19 11 29 0 10 16 36 35 57 28 31 34 45 29 65 -8 35 -28 49 -51
38 -10 -6 -55 -27 -100 -48 -89 -42 -95 -53 -52 -100 11 -11 19 -26 19 -32 0
-7 5 -12 10 -12 6 0 10 -8 10 -17 0 -9 12 -34 26 -55 32 -46 45 -161 22 -190
-21 -27 -72 -32 -93 -8 -12 14 -31 20 -59 20 -23 0 -54 7 -70 15 -33 17 -19
26 -133 -78 -29 -26 -61 -47 -72 -47 -11 0 -41 18 -66 40 -25 22 -50 40 -55
40 -5 0 -12 9 -15 20 -3 11 -12 20 -20 20 -20 0 -19 109 2 133 15 15 15 24 5
63 -16 59 -15 103 3 137 14 27 13 30 -8 48 -12 10 -34 18 -48 19 -53 0 -101
93 -76 147 8 18 6 27 -5 40 -58 67 -64 162 -16 260 36 73 58 93 104 93 39 0
60 -23 105 -116 39 -79 35 -128 -17 -205 -38 -57 -39 -63 -22 -118 l12 -40 79
3 c78 3 103 15 93 42 -2 6 5 16 15 22 10 7 19 19 19 27 0 18 17 20 22 3 3 -9
9 -8 22 5 10 9 22 17 27 17 6 0 21 12 35 28 23 25 24 32 19 99 -5 54 -3 78 9
102 l16 30 -47 36 c-60 46 -76 70 -69 101 l6 24 -3075 0 -3075 0 0 -1744z
m7199 1572 c17 -24 36 -59 41 -80 7 -22 22 -45 41 -58 36 -26 77 -105 85 -164
8 -52 -25 -131 -76 -183 -35 -37 -52 -40 -94 -18 -27 14 -31 14 -39 -1 -5 -9
-18 -25 -29 -36 -42 -42 -127 0 -128 62 0 41 19 96 40 115 27 25 25 46 -11
104 -50 82 -36 183 35 269 23 26 35 32 66 32 33 0 42 -5 69 -42z m-1833 -65
c21 -22 74 -132 74 -156 0 -24 24 -70 46 -88 25 -21 74 -129 74 -164 0 -16
-12 -57 -25 -90 -20 -48 -25 -77 -25 -145 0 -113 -9 -126 -95 -135 -36 -4 -65
-11 -65 -16 0 -5 -6 -9 -14 -9 -15 0 -26 21 -26 49 0 22 35 55 48 47 10 -6 42
52 42 77 0 19 -18 34 -53 42 -38 10 -56 49 -68 148 -7 54 -16 89 -29 102 -10
11 -27 36 -39 55 -41 69 -19 190 49 261 41 43 77 51 106 22z m2265 -539 c13
-16 36 -224 50 -464 24 -391 10 -3084 -17 -3308 -4 -34 -11 -46 -31 -55 -22
-10 -28 -8 -43 10 -22 28 -28 280 -35 1443 -7 1098 -10 1222 -32 1335 -25 129
-25 474 0 640 10 66 30 193 43 283 26 172 46 236 52 165 2 -21 8 -43 13 -49z
m-1171 5 c0 -11 -4 -17 -10 -14 -5 3 -10 13 -10 21 0 8 5 14 10 14 6 0 10 -9
10 -21z m789 2 c13 -3 28 -16 32 -29 7 -18 -1 -30 -48 -77 -72 -70 -91 -71
-155 -8 -59 58 -63 88 -15 108 33 15 143 18 186 6z m1 -271 c11 -11 20 -26 20
-34 0 -52 -64 -126 -128 -147 -35 -12 -102 -4 -102 11 0 16 22 23 31 9 7 -11
9 -11 9 3 0 9 9 18 21 20 16 2 25 15 34 46 15 50 60 112 81 112 7 0 23 -9 34
-20z m-1393 2 c17 -11 5 -77 -16 -96 -10 -9 -28 -17 -42 -18 -19 -2 -25 2 -27
21 -10 67 40 122 85 93z m-387 -102 c23 -14 -2 -32 -34 -24 -25 6 -25 7 -9 20
22 16 24 16 43 4z m-105 -112 c1 -24 -3 -52 -9 -63 -6 -11 -9 -23 -8 -27 1 -3
-5 -12 -13 -18 -22 -18 -18 -43 10 -76 14 -16 29 -40 33 -54 12 -41 7 -417 -7
-515 -16 -113 -15 -299 1 -413 21 -153 14 -1499 -11 -1822 l-6 -85 -31 -3
c-31 -3 -32 -2 -39 49 -21 152 -30 547 -29 1244 0 389 3 461 22 623 13 101 21
186 18 190 -8 15 -21 319 -21 517 0 131 5 234 13 275 7 36 13 76 13 90 1 84
12 139 27 143 26 6 36 -9 37 -55z m-750 -1008 c-2 -12 0 -30 5 -39 15 -28 40
-532 40 -806 0 -213 -21 -731 -35 -882 -13 -128 -16 -142 -29 -137 -10 4 -15
42 -20 142 -19 427 -23 880 -11 1242 7 221 25 512 32 524 9 14 23 -19 18 -44z
m-2428 -1203 c-6 -20 -27 -19 -27 2 0 14 5 19 15 14 9 -3 14 -10 12 -16z m-20
-74 c-3 -10 -5 -4 -5 12 0 17 2 24 5 18 2 -7 2 -21 0 -30z m14 -53 c5 0 9 -5
9 -11 0 -5 -5 -7 -11 -3 -8 4 -9 -3 -4 -24 3 -18 2 -33 -4 -37 -7 -4 -11 13
-10 52 1 32 3 50 6 41 2 -10 9 -18 14 -18z m3429 -789 l45 -7 -65 -13 c-97
-18 -796 -21 -828 -3 -13 8 -21 16 -19 19 20 19 743 22 867 4z m2875 -928 c-2
-21 -4 -40 -5 -43 0 -3 -7 6 -15 20 -13 23 -12 69 3 94 9 16 21 -32 17 -71z
m-4906 -230 c8 -14 28 -19 100 -23 78 -5 94 -9 116 -30 17 -16 25 -33 23 -49
-4 -35 -66 -48 -120 -26 -21 8 -66 15 -99 15 -37 0 -72 6 -92 17 -18 9 -45 19
-62 23 -38 8 -43 33 -13 65 19 21 33 25 80 25 44 0 59 -4 67 -17z m399 -68
c12 -9 34 -15 49 -13 22 2 29 -1 31 -19 3 -17 -2 -23 -15 -23 -11 0 -24 5 -31
12 -9 9 -16 8 -30 -5 -23 -21 -73 -31 -107 -23 -39 10 -35 53 8 71 42 19 68
18 95 0z m-473 -116 c33 -29 47 -69 25 -69 -27 0 -79 30 -85 50 -6 17 8 50 21
50 2 0 19 -14 39 -31z m189 -20 c-7 -12 -61 -12 -68 0 -8 13 11 18 45 13 16
-2 26 -8 23 -13z m-60 -75 c7 -20 -20 -54 -42 -54 -19 0 -52 29 -52 46 0 25
85 32 94 8z m7068 -731 c-40 -2 -103 -2 -140 0 -37 2 -4 3 73 3 77 0 107 -2
67 -3z m-7952 -2998 c0 -8 -9 -15 -20 -15 -22 0 -27 15 -7 23 21 9 27 7 27 -8z
m76 0 c-10 -8 -23 -12 -29 -8 -11 7 12 23 33 23 12 -1 11 -4 -4 -15z m-1466
-73 c19 -2 21 -5 12 -14 -8 -8 -36 -11 -74 -10 -65 3 -73 5 -65 19 5 8 50 10
127 5z m88 -21 c10 -6 8 -10 -8 -14 -26 -7 -52 1 -44 14 7 11 35 11 52 0z
m7922 -326 c0 -10 -91 -45 -156 -60 -94 -22 -100 -17 -16 10 41 13 79 28 85
33 19 16 87 28 87 17z m1007 -31 c-3 -3 -12 -4 -19 -1 -8 3 -5 6 6 6 11 1 17
-2 13 -5z m-6900 -52 c21 -13 0 -29 -52 -40 -57 -12 -83 0 -42 19 15 7 27 16
27 21 0 10 51 10 67 0z m5583 -12 c-26 -20 -40 -25 -40 -14 0 11 34 33 50 33
10 1 6 -6 -10 -19z m-1690 -215 c-7 -8 -18 -15 -26 -15 -7 0 -18 -9 -24 -20
-6 -11 -19 -20 -29 -20 -10 0 -24 -7 -31 -15 -7 -8 -20 -15 -28 -15 -11 0 -5
11 18 35 19 19 42 35 51 35 9 0 19 7 23 15 3 8 17 15 32 15 22 0 25 -2 14 -15z
m-109 -379 c-10 -12 -134 -47 -165 -46 -20 1 18 17 56 24 20 4 50 13 65 21 37
20 60 20 44 1z m-334 -42 c-3 -3 -12 -4 -19 -1 -8 3 -5 6 6 6 11 1 17 -2 13
-5z m-3344 -50 c9 -9 -64 -144 -78 -144 -7 0 -19 -2 -27 -5 -21 -8 -37 44 -24
76 15 35 36 60 47 53 5 -3 9 -1 9 5 0 8 18 15 56 20 6 0 13 -2 17 -5z m3284
-20 c-3 -4 -28 -8 -54 -10 -132 -9 -193 -15 -222 -24 -19 -5 -31 -5 -31 1 0 5
3 9 8 9 4 1 30 7 57 15 49 13 254 21 242 9z m1598 -4 c3 -5 -1 -10 -9 -10 -9
0 -16 5 -16 10 0 6 4 10 9 10 6 0 13 -4 16 -10z m-1950 -39 c-15 -13 -75 -31
-104 -31 -20 1 -14 5 24 20 54 20 95 26 80 11z m-141 -26 c8 -8 22 -15 32 -15
10 0 15 -3 12 -6 -9 -8 -128 17 -128 27 0 15 68 10 84 -6z m-2041 -12 c-7 -2
-21 -2 -30 0 -10 3 -4 5 12 5 17 0 24 -2 18 -5z m2227 -33 c-41 -4 -102 -10
-135 -15 -33 -4 -57 -4 -53 -1 11 13 100 24 183 23 l80 0 -75 -7z m-2915 -27
c-14 -13 -16 -29 -12 -76 3 -33 11 -63 18 -68 9 -5 10 -11 2 -21 -16 -20 -28
-102 -24 -163 2 -16 -2 -49 -8 -73 -10 -36 -9 -48 6 -72 16 -28 16 -30 -1 -49
-16 -18 -19 -38 -18 -152 1 -122 9 -159 32 -159 4 0 23 12 42 28 34 27 101 51
248 93 93 26 140 46 140 59 0 15 26 12 40 -5 30 -36 -60 -94 -173 -111 -45 -7
-107 -38 -120 -60 -4 -8 -12 -14 -17 -14 -5 0 -26 -12 -47 -26 -27 -18 -48
-24 -75 -22 -21 1 -42 -2 -48 -8 -6 -6 -13 -49 -17 -97 -5 -71 -3 -88 10 -102
15 -15 15 -20 2 -52 -15 -37 -19 -153 -4 -153 4 0 7 -40 7 -90 -1 -49 -5 -90
-9 -90 -5 0 -9 -7 -9 -16 0 -8 5 -12 10 -9 6 3 10 -5 10 -19 0 -14 -4 -27 -9
-30 -12 -8 -10 -96 2 -96 5 0 4 -7 -3 -15 -7 -8 -10 -27 -7 -41 2 -14 -2 -39
-10 -56 -13 -25 -13 -34 -2 -55 10 -19 11 -28 1 -44 -7 -11 -10 -24 -7 -29 4
-6 1 -10 -4 -10 -6 0 -12 8 -12 18 -6 73 -10 127 -13 192 -2 41 -6 85 -9 97
-3 12 -7 107 -8 210 -1 103 -6 198 -10 209 -5 14 -2 29 8 43 11 17 12 28 4 52
-7 22 -8 37 0 51 7 14 7 23 -1 33 -6 7 -10 35 -10 61 1 27 -3 74 -9 104 -5 30
-10 114 -10 185 -1 72 -5 135 -9 141 -9 14 -45 14 -109 2 -39 -8 -59 -8 -82 1
-20 9 -35 10 -48 3 -10 -5 -50 -12 -90 -15 -63 -4 -72 -2 -76 14 -3 11 -12 16
-23 14 -11 -2 -25 -4 -33 -4 -8 -1 -11 -8 -8 -21 4 -17 0 -20 -32 -20 -21 0
-73 -4 -117 -10 -137 -16 -212 -18 -207 -3 7 17 -12 17 -30 -1 -8 -8 -35 -14
-65 -14 -28 -1 -77 -6 -109 -11 -32 -6 -83 -13 -113 -16 -96 -9 -115 -12 -133
-20 -13 -6 -16 -4 -11 9 3 9 2 16 -2 17 -5 0 -21 3 -35 5 -17 3 -34 -3 -51
-19 -32 -29 -98 -27 -98 4 0 16 -7 18 -67 14 -70 -5 -83 -11 -87 -41 -3 -22
-33 -31 -49 -15 -8 8 -6 11 6 11 22 0 22 29 0 46 -37 28 -98 6 -98 -35 0 -11
-3 -21 -7 -21 -33 -1 -38 2 -38 20 0 12 -10 24 -22 30 -22 8 -22 9 4 9 16 1
33 11 45 27 29 40 74 50 211 48 67 -1 122 3 122 7 0 5 14 9 30 9 17 0 30 -4
30 -10 0 -11 71 -12 147 -1 29 4 59 3 69 -2 10 -6 37 -5 71 2 39 7 68 8 104 0
52 -11 95 -5 70 10 -7 5 7 8 36 8 86 1 227 11 252 19 17 5 22 4 17 -4 -4 -7
-25 -15 -48 -18 -28 -5 -36 -9 -26 -15 14 -8 59 2 98 21 9 4 41 6 72 4 32 -2
60 1 63 6 4 6 15 10 26 10 10 0 19 5 19 10 0 6 5 10 11 10 5 0 8 -4 4 -9 -9
-15 32 -23 54 -11 14 7 34 7 63 0 56 -13 58 -12 58 4 0 19 34 30 66 22 13 -4
24 -2 24 3 0 13 124 33 128 21 2 -6 8 -10 13 -10 6 0 9 78 7 201 -3 232 -5
229 90 229 50 0 52 -1 37 -17z m1162 -276 c-3 -8 -25 -12 -61 -11 -84 2 -88
19 -5 21 51 2 69 -1 66 -10z m2493 -187 c11 0 20 -39 10 -45 -14 -9 -38 35
-32 58 5 18 7 19 10 5 2 -10 7 -18 12 -18z m-2951 1 c8 -5 15 -21 17 -35 4
-35 -57 -77 -99 -69 -40 8 -55 49 -27 75 11 10 20 23 20 28 0 12 70 13 89 1z
m2707 -270 c-9 -10 -16 -28 -16 -40 0 -14 -5 -21 -12 -18 -20 6 -9 60 15 79
26 20 36 4 13 -21z m-3206 -141 c0 -5 -2 -10 -4 -10 -3 0 -8 5 -11 10 -3 6 -1
10 4 10 6 0 11 -4 11 -10z m-39 -30 c4 0 6 -7 3 -15 -8 -19 -54 -20 -54 -2 0
19 12 29 28 22 7 -3 18 -5 23 -5z m5697 -267 c-10 -2 -26 -2 -35 0 -10 3 -2 5
17 5 19 0 27 -2 18 -5z m469 -59 c-3 -3 -12 -4 -19 -1 -8 3 -5 6 6 6 11 1 17
-2 13 -5z m66 -11 c-7 -2 -21 -2 -30 0 -10 3 -4 5 12 5 17 0 24 -2 18 -5z
m209 -24 c87 -12 156 -24 154 -26 -5 -5 -328 37 -335 43 -8 7 19 4 181 -17z
m236 -36 c-10 -2 -28 -2 -40 0 -13 2 -5 4 17 4 22 1 32 -1 23 -4z m65 -10 c-7
-2 -21 -2 -30 0 -10 3 -4 5 12 5 17 0 24 -2 18 -5z m-2327 -450 c-10 -10 -19
5 -10 18 6 11 8 11 12 0 2 -7 1 -15 -2 -18z m-86 -13 c0 -5 -4 -10 -10 -10 -5
0 -10 5 -10 10 0 6 5 10 10 10 6 0 10 -4 10 -10z m190 0 c0 -5 -4 -10 -10 -10
-5 0 -10 5 -10 10 0 6 5 10 10 10 6 0 10 -4 10 -10z m-270 -61 c0 -6 -4 -7
-10 -4 -5 3 -10 11 -10 16 0 6 5 7 10 4 6 -3 10 -11 10 -16z m350 0 c0 -5 -4
-9 -10 -9 -5 0 -10 7 -10 16 0 8 5 12 10 9 6 -3 10 -10 10 -16z m-96 -18 c5
-1 6 -4 3 -8 -4 -3 -2 -12 4 -20 12 -13 2 -18 -28 -14 -7 1 -13 -4 -13 -11 0
-9 -3 -9 -12 1 -11 10 -10 15 4 25 13 9 14 16 6 24 -8 8 -5 10 8 7 11 -2 23
-4 28 -4z m63 -47 c-3 -3 -12 -4 -19 -1 -8 3 -5 6 6 6 11 1 17 -2 13 -5z
m-4777 -22 c0 -13 -12 -22 -22 -16 -10 6 -1 24 13 24 5 0 9 -4 9 -8z"/>
<path d="M8493 13478 c3 -13 8 -77 12 -143 3 -66 7 -158 10 -205 2 -47 11
-168 19 -270 14 -178 27 -445 45 -955 17 -461 2 -1916 -24 -2400 -11 -210 -16
-438 -10 -466 5 -23 14 -31 38 -37 18 -3 34 -6 37 -5 6 2 131 10 280 18 304
17 426 28 535 50 97 19 177 26 425 35 168 6 397 15 510 20 113 5 255 9 315 8
103 -1 100 -2 -50 -8 -254 -11 -416 -22 -411 -27 3 -3 133 -2 290 2 l286 8 0
2198 0 2199 -1156 0 -1156 0 5 -22z"/>
<path d="M6334 13175 c-5 -18 1 -35 20 -60 34 -44 50 -45 41 -2 -9 41 -33 87
-45 87 -5 0 -12 -11 -16 -25z"/>
<path d="M6181 12847 c-13 -13 -14 -76 -1 -97 7 -12 10 -11 16 5 4 11 16 30
27 42 11 12 17 28 14 36 -7 19 -43 27 -56 14z"/>
<path d="M0 8246 c0 -77 4 -126 10 -126 6 0 10 -7 10 -15 0 -8 -4 -15 -10 -15
-6 0 -10 -58 -10 -154 l0 -154 143 -7 c78 -4 246 -5 372 -3 300 6 321 13 490
158 39 33 78 60 87 60 9 0 20 5 24 11 11 19 151 106 181 113 66 15 173 50 173
57 0 10 -32 17 -175 34 -72 8 -137 18 -145 21 -8 3 -103 14 -210 25 -107 11
-296 33 -420 49 -124 17 -283 37 -355 45 -72 9 -138 18 -147 21 -17 5 -18 -5
-18 -120z"/>
<path d="M4700 7480 c0 -57 -4 -80 -12 -80 -8 0 -6 -5 4 -10 23 -14 358 -30
630 -30 226 0 501 14 568 30 l35 8 -35 1 c-19 1 -30 5 -25 9 6 4 11 40 12 80
2 70 2 72 -22 72 -23 0 -25 -3 -23 -52 0 -29 4 -65 9 -80 7 -26 5 -27 -34 -33
-62 -9 -299 -22 -319 -17 -14 3 -18 18 -20 86 l-3 81 -60 3 c-94 5 -290 -9
-274 -19 9 -7 5 -7 -13 -3 -28 6 -28 6 -29 -52 -1 -33 -2 -67 -2 -76 0 -14 -8
-18 -38 -18 -44 0 -43 -1 -39 103 l2 57 -35 0 c-43 0 -50 -15 -46 -98 l3 -57
-55 -3 c-29 -2 -69 0 -87 3 l-33 6 5 72 c5 78 -3 97 -40 97 -23 0 -24 -2 -24
-80z"/>
<path d="M5102 7339 c10 -5 43 -13 75 -18 l58 -9 -60 -1 c-51 -1 -57 -3 -40
-13 12 -7 71 -12 155 -12 141 0 195 7 184 25 -3 6 2 17 12 25 17 12 -8 14
-191 13 -140 0 -204 -4 -193 -10z m301 -26 c-7 -2 -19 -2 -25 0 -7 3 -2 5 12
5 14 0 19 -2 13 -5z"/>
<path d="M5280 7259 c0 -5 5 -7 10 -4 6 3 10 8 10 11 0 2 -4 4 -10 4 -5 0 -10
-5 -10 -11z"/>
<path d="M5085 6945 c-451 -83 -809 -448 -912 -930 -15 -72 -17 -186 -20
-1122 l-4 -1043 386 0 c255 0 384 3 380 10 -4 6 -139 10 -371 10 l-365 0 3
1053 3 1052 27 97 c116 413 401 711 788 824 106 32 305 43 431 25 233 -34 448
-149 625 -333 160 -167 258 -363 300 -597 11 -61 13 -285 14 -1098 l0 -1023
-375 0 c-243 0 -375 -4 -375 -10 0 -6 137 -10 390 -10 l391 0 -4 1058 c-3
1043 -3 1058 -25 1145 -107 437 -419 766 -830 874 -123 32 -334 40 -457 18z"/>
<path d="M5190 6649 c-299 -31 -573 -250 -689 -549 -62 -159 -61 -144 -61
-1105 l0 -875 23 0 c12 0 388 -1 835 -3 l813 -3 -3 911 -3 910 -23 74 c-50
164 -127 293 -238 405 -172 172 -416 260 -654 235z m293 -47 c244 -73 438
-250 537 -490 70 -167 70 -160 70 -1114 l0 -858 -815 0 -815 0 0 839 c0 538 4
868 11 918 25 186 107 351 244 489 124 125 257 200 418 234 70 15 273 4 350
-18z"/>
<path d="M5265 6390 c-5 -14 -15 -20 -38 -20 l-32 -1 24 -19 c17 -15 22 -26
17 -45 -7 -27 3 -32 22 -13 10 10 17 10 32 0 28 -17 33 -15 26 14 -5 19 -1 30
16 44 l23 19 -28 1 c-20 0 -30 6 -34 20 -3 11 -9 20 -13 20 -5 0 -12 -9 -15
-20z"/>
<path d="M5025 6338 c-6 -23 -13 -28 -39 -28 l-31 -1 27 -20 c23 -17 26 -24
18 -45 -11 -28 -8 -29 24 -9 21 14 24 14 36 0 20 -24 31 -18 20 11 -9 21 -6
29 12 45 l23 18 -31 1 c-24 0 -32 6 -41 28 l-10 27 -8 -27z"/>
<path d="M5507 6330 c-4 -14 -14 -20 -33 -20 -26 0 -27 -1 -9 -20 12 -13 15
-27 11 -45 -7 -28 -4 -30 24 -13 16 10 24 10 40 0 28 -17 31 -15 18 13 -9 21
-8 27 13 44 l24 20 -27 1 c-18 0 -29 7 -33 20 -3 11 -10 20 -15 20 -4 0 -10
-9 -13 -20z"/>
<path d="M5705 6188 c-6 -23 -13 -28 -39 -28 l-31 -1 23 -19 c20 -16 22 -25
17 -52 -7 -32 -7 -33 12 -15 23 20 44 22 62 5 11 -11 12 -8 7 15 -5 22 -2 32
16 47 l23 19 -32 1 c-25 0 -33 5 -41 28 l-10 27 -7 -27z"/>
<path d="M4817 6180 c-4 -14 -14 -20 -34 -20 l-28 -1 24 -20 c21 -17 22 -23
13 -44 -13 -28 -6 -31 22 -10 16 12 22 12 42 -2 25 -16 31 -9 14 17 -6 10 -3
21 12 37 l21 23 -26 0 c-17 0 -28 7 -32 20 -3 11 -10 20 -15 20 -4 0 -10 -9
-13 -20z"/>
<path d="M5240 6171 c0 -5 15 -21 33 -36 l32 -26 -57 27 c-32 16 -61 24 -65
20 -11 -11 52 -63 86 -71 32 -8 123 -47 119 -51 -2 -1 -29 4 -61 11 -31 7 -59
9 -62 5 -6 -10 33 -40 52 -40 6 0 14 -4 18 -9 3 -6 -22 -8 -65 -4 -38 3 -70 3
-70 -1 0 -13 70 -36 111 -36 23 0 40 -3 36 -6 -3 -4 -27 -6 -53 -6 -39 1 -44
-1 -34 -13 7 -9 32 -16 59 -16 l46 -2 -57 -10 c-32 -6 -58 -14 -58 -18 0 -4
48 -10 106 -14 75 -5 107 -11 111 -21 3 -8 9 -11 14 -8 9 5 13 -8 9 -40 -1
-11 3 -15 9 -12 7 4 11 -1 11 -14 0 -13 4 -19 12 -14 8 5 9 0 6 -14 -4 -12 -2
-22 3 -22 5 0 9 6 9 13 1 6 7 1 15 -13 8 -14 15 -20 15 -15 0 6 5 3 10 -5 6
-10 10 -11 10 -2 0 6 6 11 12 10 7 -2 14 7 16 19 5 32 24 44 76 46 25 1 44 6
42 12 -2 6 -19 9 -39 7 -38 -3 -77 23 -77 51 0 19 33 47 54 47 20 0 31 24 20
48 -4 9 -8 21 -8 26 -1 13 -26 20 -26 7 0 -16 -53 -14 -75 3 -15 11 -17 17 -7
28 9 12 7 19 -12 37 -13 12 -27 21 -32 19 -5 -1 -35 2 -66 6 -44 6 -75 19
-133 57 -76 49 -95 57 -95 40z m277 -147 c-3 -16 1 -24 12 -27 9 -2 1 -6 -18
-9 -25 -4 -39 0 -54 15 -16 16 -17 21 -6 28 9 6 15 3 17 -6 2 -8 13 -15 24
-15 16 0 19 5 16 25 -3 14 -1 22 4 19 6 -4 8 -17 5 -30z m26 -96 c15 -6 27
-15 27 -21 0 -7 4 -7 12 1 7 7 16 12 20 12 13 0 1 -52 -16 -68 -12 -12 -18 -8
-46 33 -17 25 -34 44 -38 41 -3 -3 -11 -1 -19 5 -10 9 -17 8 -28 -1 -9 -8 -15
-8 -15 -2 0 23 43 23 103 0z m92 -27 c-3 -6 -11 -11 -17 -11 -6 0 -6 6 2 15
14 17 26 13 15 -4z m-235 -11 c-8 -5 -24 -9 -35 -9 -16 1 -16 2 5 9 35 11 48
11 30 0z m140 -31 c15 -28 4 -38 -15 -13 -17 22 -19 34 -5 34 5 0 14 -9 20
-21z m86 -42 c8 -4 14 -14 14 -22 0 -10 -7 -11 -35 -3 -19 6 -32 15 -29 20 3
4 0 8 -5 8 -6 0 -11 4 -11 10 0 5 6 7 14 4 8 -3 18 0 22 7 6 10 9 10 12 -1 3
-8 11 -19 18 -23z"/>
<path d="M5385 6139 c21 -37 40 -49 74 -48 l36 1 -30 10 c-16 6 -43 20 -59 31
-18 13 -26 15 -21 6z"/>
<path d="M5117 6110 c-103 -40 -180 -130 -193 -226 -11 -91 38 -186 95 -183
24 2 24 2 4 6 -30 6 -69 74 -78 136 -13 92 53 185 166 237 24 11 54 20 67 20
25 0 30 15 6 24 -9 3 -16 6 -17 6 -1 -1 -24 -9 -50 -20z"/>
<path d="M5184 6082 c6 -9 -35 -51 -69 -71 -18 -11 -18 -12 5 -6 88 22 104 25
121 20 15 -5 17 -3 13 10 -5 13 -14 15 -41 10 -24 -4 -33 -3 -28 4 3 6 17 11
30 11 32 0 40 16 12 24 -31 8 -49 7 -43 -2z"/>
<path d="M5135 6070 c27 -12 35 -12 35 0 0 6 -12 10 -27 9 -25 0 -26 -1 -8 -9z"/>
<path d="M4930 6023 c-74 -49 -161 -142 -202 -216 -30 -57 -33 -69 -31 -142 1
-83 12 -119 66 -223 36 -69 44 -63 10 7 -14 30 -32 90 -41 134 -18 93 -9 156
34 245 29 60 141 186 141 159 0 -9 -4 -14 -8 -11 -12 7 -74 -80 -115 -162 -45
-90 -54 -164 -30 -261 10 -38 25 -82 35 -97 l19 -28 -1 44 c0 23 1 54 2 68 2
14 -1 56 -7 94 -7 43 -8 86 -2 115 9 50 77 207 86 199 3 -3 -14 -46 -36 -94
-41 -87 -42 -91 -38 -179 4 -88 28 -161 59 -181 8 -5 8 -1 0 14 -23 43 -3 120
37 140 21 11 42 5 42 -13 0 -7 7 -18 15 -25 26 -22 16 -32 -12 -12 -16 10 -34
22 -42 27 -22 13 45 -81 77 -107 23 -19 27 -28 22 -55 l-5 -33 -32 19 c-17 11
-33 30 -35 43 -4 27 -38 38 -38 12 0 -10 7 -25 16 -35 15 -16 13 -17 -25 -12
-39 5 -41 4 -41 -21 0 -23 3 -26 24 -20 14 3 35 3 47 -1 22 -7 21 -8 -11 -19
-37 -12 -51 -40 -29 -60 9 -8 10 -8 5 2 -12 20 13 42 49 42 51 0 62 -23 44
-89 -2 -7 2 -16 10 -18 10 -4 11 1 6 18 -7 21 -6 22 8 11 14 -12 17 -10 23 13
4 17 9 23 14 15 6 -9 9 -9 15 -1 4 7 2 18 -5 26 -8 10 -8 19 -1 33 15 28 13
110 -4 180 -7 28 12 89 36 117 9 11 20 39 24 63 5 32 11 42 26 42 28 0 23 19
-7 26 -30 8 -44 -7 -44 -47 0 -15 -10 -38 -21 -53 -47 -60 -128 -4 -150 104
-14 69 -2 118 46 189 18 28 33 51 32 50 -1 0 -27 -16 -57 -36z m70 -378 c15
-18 23 -68 10 -60 -5 3 -7 12 -3 20 3 10 -1 15 -15 15 -20 0 -36 23 -25 34 10
10 20 7 33 -9z m17 -327 c-3 -7 -5 -2 -5 12 0 14 2 19 5 13 2 -7 2 -19 0 -25z"/>
<path d="M5080 6051 c0 -5 8 -12 18 -14 10 -3 6 -5 -11 -6 -38 -1 -88 -29 -85
-46 2 -8 -6 -21 -17 -29 -11 -8 -17 -17 -14 -20 3 -4 18 3 33 15 20 15 24 24
15 29 -16 11 24 32 45 24 15 -6 76 30 76 45 0 4 -13 8 -30 9 -16 1 -30 -2 -30
-7z"/>
<path d="M5133 5991 c-14 -17 -18 -18 -27 -5 -10 12 -16 12 -46 -3 -27 -14
-35 -24 -37 -48 0 -16 -4 -47 -8 -67 -5 -26 -4 -38 4 -38 6 0 11 11 11 24 0
13 9 35 20 49 26 33 25 40 -2 32 -22 -6 -22 -6 -4 9 22 18 40 21 31 6 -7 -12
8 -14 19 -2 4 4 11 8 14 8 24 4 72 30 76 41 8 21 -32 15 -51 -6z"/>
<path d="M5180 5971 c0 -5 6 -12 13 -14 6 -3 -4 -3 -23 -1 -29 4 -32 3 -17 -6
10 -7 31 -9 48 -5 28 6 29 8 12 21 -21 16 -33 18 -33 5z"/>
<path d="M5104 5937 c-28 -16 -54 -47 -61 -76 -3 -14 -12 -34 -20 -43 -8 -9
-13 -25 -11 -35 4 -15 7 -12 19 12 7 17 19 36 26 43 7 7 13 19 13 26 0 7 12
19 28 26 25 12 26 13 7 21 -17 7 -15 8 9 6 16 -1 31 3 33 9 6 17 -20 24 -43
11z"/>
<path d="M5187 5926 c-60 -22 -103 -62 -135 -125 -22 -44 -33 -56 -41 -48 -8
8 -11 7 -11 -5 0 -17 18 -27 37 -21 7 3 18 23 23 45 16 58 82 126 136 139 24
6 44 15 44 20 0 12 -7 11 -53 -5z"/>
<path d="M4970 5910 c-21 -21 -27 -50 -11 -50 5 0 13 9 16 20 3 11 10 20 15
20 5 0 0 -16 -11 -35 -11 -19 -19 -42 -17 -52 5 -22 38 46 44 90 4 32 -8 35
-36 7z"/>
<path d="M4984 5796 c-3 -21 -4 -39 -1 -42 3 -4 9 10 13 30 3 21 4 39 1 42 -3
4 -9 -10 -13 -30z"/>
<path d="M5237 5787 c-117 -37 -181 -177 -130 -284 20 -44 90 -90 149 -99 80
-12 165 32 175 92 3 19 4 34 2 34 -2 0 -16 -14 -30 -30 -52 -62 -116 -76 -174
-37 -67 44 -88 140 -49 217 35 68 98 94 163 66 34 -14 43 -26 62 -81 7 -19 8
-19 16 5 18 46 7 82 -31 101 -48 24 -108 30 -153 16z"/>
<path d="M5470 5752 c0 -24 13 -38 100 -106 63 -49 107 -123 116 -201 l7 -50
-27 28 c-17 19 -26 23 -26 13 0 -8 5 -18 11 -22 10 -6 7 -30 -7 -68 -3 -9 -2
-16 4 -16 6 0 13 14 17 31 4 17 9 28 12 25 10 -10 -29 -98 -59 -132 -16 -18
-45 -43 -63 -54 -32 -20 -36 -20 -64 -6 -17 9 -38 16 -48 16 -16 -1 -16 -2 2
-16 19 -14 17 -15 -20 -8 -22 5 -52 7 -67 7 -15 -1 -30 2 -33 7 -4 6 -15 10
-25 10 -14 0 -18 -5 -14 -17 5 -15 4 -16 -5 -3 -16 23 -14 27 21 34 23 4 29 9
21 17 -8 8 -17 8 -31 0 -11 -6 -29 -11 -39 -10 -16 0 -16 1 2 9 22 9 14 13
-25 11 -23 0 -22 1 5 9 19 6 31 6 33 0 2 -6 11 -10 19 -10 13 0 13 3 3 15 -8
10 -25 14 -49 11 -20 -2 -44 0 -54 6 -10 5 -23 7 -30 4 -7 -3 -3 -7 9 -11 12
-4 21 -14 20 -22 -3 -18 -35 -45 -46 -38 -4 3 -12 -1 -18 -8 -10 -13 1 -57 15
-57 10 0 38 42 35 53 -5 16 61 6 89 -15 32 -24 92 -29 187 -15 37 5 52 5 47
-3 -3 -5 1 -10 10 -10 28 0 79 28 118 64 88 83 107 211 49 327 -36 73 -86 130
-131 149 -17 6 -39 26 -51 44 -18 28 -20 29 -20 8z"/>
<path d="M5615 5700 c-3 -5 8 -28 25 -51 34 -48 38 -43 13 18 -18 43 -27 51
-38 33z"/>
<path d="M5490 5676 c0 -20 13 -27 29 -16 11 6 9 10 -8 19 -17 10 -21 9 -21
-3z"/>
<path d="M5670 5658 c5 -13 12 -41 15 -63 6 -32 9 -36 16 -22 7 12 4 30 -10
62 -20 45 -39 65 -21 23z"/>
<path d="M5503 5635 c-6 -18 23 -55 44 -55 9 0 12 -7 8 -22 -4 -14 1 -31 10
-43 16 -19 16 -12 0 28 -6 13 -3 16 9 11 19 -7 20 4 6 41 -9 23 -8 26 5 21 22
-8 9 11 -17 25 -19 10 -20 9 -14 -14 3 -14 2 -28 -3 -31 -5 -4 -12 7 -16 24
-7 32 -22 39 -32 15z"/>
<path d="M5500 5571 c0 -11 5 -23 11 -27 8 -5 8 -9 -1 -14 -14 -9 -6 -60 10
-60 9 0 11 70 3 103 -6 23 -23 22 -23 -2z"/>
<path d="M5603 5569 c-1 -12 -8 -26 -14 -30 -10 -6 -10 -11 0 -23 19 -23 28
-12 23 25 -4 24 -2 30 8 24 8 -5 11 -3 8 5 -7 23 -24 22 -25 -1z"/>
<path d="M5722 5535 c0 -51 1 -55 9 -30 5 18 5 43 0 60 -8 25 -9 20 -9 -30z"/>
<path d="M5635 5520 c10 -11 20 -18 23 -15 7 6 -18 35 -31 35 -5 0 -2 -9 8
-20z"/>
<path d="M5540 5488 c0 -21 2 -38 4 -38 9 0 12 50 5 62 -6 8 -9 -1 -9 -24z"/>
<path d="M5765 5490 c9 -16 18 -30 21 -30 2 0 -2 14 -11 30 -9 17 -18 30 -21
30 -2 0 2 -13 11 -30z"/>
<path d="M5580 5492 c0 -14 37 -58 44 -52 7 8 -17 53 -31 58 -7 2 -13 -1 -13
-6z"/>
<path d="M5610 5496 c0 -3 14 -14 30 -26 30 -21 30 -21 30 -1 0 14 -5 19 -15
15 -8 -4 -15 -1 -15 5 0 6 -7 11 -15 11 -8 0 -15 -2 -15 -4z"/>
<path d="M5738 5480 c-4 -14 -8 -41 -8 -60 1 -29 2 -32 11 -17 6 9 9 36 7 60
-3 36 -4 38 -10 17z"/>
<path d="M5492 5448 c3 -26 0 -34 -9 -31 -8 3 -13 -3 -13 -16 0 -12 -4 -21
-10 -21 -5 0 -10 -5 -10 -12 0 -6 10 -2 23 10 29 27 32 27 34 0 2 -15 -1 -18
-6 -10 -6 9 -12 8 -25 -7 -13 -15 -14 -20 -4 -24 7 -2 -3 -12 -24 -22 -41 -20
-39 -21 -171 29 -70 27 -131 34 -142 16 -4 -6 -11 -8 -16 -4 -13 8 -82 -61
-84 -84 -1 -9 -8 -36 -15 -59 -38 -121 49 -232 183 -233 36 0 66 9 118 36 94
49 140 54 173 21 31 -31 33 -56 6 -90 -39 -49 -146 -60 -221 -23 -36 18 -38 3
-3 -21 24 -15 25 -18 9 -29 -15 -11 -14 -13 7 -20 64 -20 159 4 210 53 78 75
48 181 -51 184 l-46 2 40 6 c22 4 44 3 50 -1 15 -13 45 -9 45 6 0 8 -8 14 -17
14 -10 0 -27 3 -37 7 -14 6 -17 5 -11 -4 5 -10 2 -11 -13 -7 -11 4 -46 -2 -78
-14 -87 -30 -90 -23 -4 11 52 21 84 29 104 25 24 -5 28 -4 19 5 -20 20 -90 11
-146 -18 -66 -35 -157 -40 -183 -12 -9 11 -23 19 -30 19 -7 0 -14 6 -17 13 -2
6 -7 9 -11 6 -13 -12 7 -38 45 -58 30 -16 57 -20 119 -20 44 0 82 5 85 10 4 5
14 9 23 9 9 0 -5 -14 -33 -30 -72 -42 -93 -50 -144 -56 l-46 -6 40 21 c45 24
49 25 40 11 -3 -5 -1 -10 5 -10 6 0 13 7 16 15 4 8 10 15 16 15 5 0 6 -4 3
-10 -9 -15 11 -12 24 3 9 11 4 14 -22 15 -18 1 -38 -3 -46 -7 -8 -6 -25 -2
-45 9 -49 28 -77 34 -70 16 3 -9 16 -16 29 -16 12 0 28 -7 35 -15 10 -12 9
-15 -8 -15 -11 0 -22 -6 -25 -12 -6 -17 -75 21 -101 56 -24 31 -27 111 -7 149
8 15 32 38 54 53 36 24 47 26 102 21 34 -3 78 -14 98 -23 39 -18 57 -53 29
-55 -10 -1 3 -5 28 -10 28 -5 48 -5 54 1 6 6 18 10 28 10 10 0 26 9 35 20 10
11 30 20 45 20 14 0 33 6 40 13 7 8 19 12 26 9 6 -2 12 0 12 5 0 5 -12 10 -26
11 -28 2 -124 -36 -124 -49 0 -12 -47 -11 -55 1 -3 6 3 10 15 10 22 0 95 34
104 49 3 4 17 6 31 3 14 -2 31 0 38 6 6 5 19 7 28 3 12 -4 14 -12 8 -28 -5
-13 -13 -23 -19 -23 -5 0 -10 -6 -10 -12 0 -7 12 -1 26 13 20 20 24 32 18 53
-5 20 -9 24 -19 16 -19 -16 -24 9 -8 40 17 32 16 45 -2 60 -13 10 -15 9 -15
-11 0 -29 -36 -109 -48 -109 -5 0 1 21 14 47 24 46 32 103 15 103 -4 0 -11
-20 -13 -44 -11 -91 -108 -167 -195 -152 -21 4 -62 16 -91 27 -89 32 -156 25
-209 -24 -13 -11 -23 -16 -23 -10 0 11 23 31 59 51 34 19 117 16 183 -8 32
-11 78 -20 103 -20 54 0 109 25 101 45 -3 8 -1 17 4 20 5 3 11 -3 13 -12 4
-17 5 -17 6 0 0 9 5 17 11 17 6 0 6 9 0 26 -6 14 -10 38 -10 54 0 16 -5 32
-11 36 -8 5 -10 -4 -7 -28z m-97 -218 c3 -6 3 -10 -2 -10 -11 1 -43 26 -43 34
0 9 37 -11 45 -24z m-138 -146 c-3 -3 -12 -4 -19 -1 -8 3 -5 6 6 6 11 1 17 -2
13 -5z m70 -220 c-3 -3 -12 -4 -19 -1 -8 3 -5 6 6 6 11 1 17 -2 13 -5z"/>
<path d="M5524 5424 c3 -9 6 -21 6 -27 0 -7 4 -7 9 2 10 16 4 41 -11 41 -6 0
-7 -7 -4 -16z"/>
<path d="M5780 5410 c5 -18 12 -35 16 -39 10 -9 -6 53 -17 63 -5 6 -5 -4 1
-24z"/>
<path d="M5626 5385 c-3 -8 -1 -15 4 -15 6 0 10 7 10 15 0 8 -2 15 -4 15 -2 0
-6 -7 -10 -15z"/>
<path d="M5724 5342 c-51 -76 -52 -80 -24 -61 25 16 64 83 58 100 -2 5 -17
-12 -34 -39z"/>
<path d="M5768 5347 c-5 -10 -8 -35 -7 -55 0 -35 1 -35 10 -12 6 13 9 38 7 55
-2 24 -4 26 -10 12z"/>
<path d="M5424 5336 c-10 -8 -16 -18 -11 -22 4 -4 7 -2 7 5 0 7 4 10 9 6 5 -3
13 0 16 6 11 17 0 20 -21 5z"/>
<path d="M5104 5258 c-5 -7 0 -9 14 -6 15 4 19 2 15 -9 -4 -11 -1 -14 8 -11 8
3 15 12 17 21 3 12 -4 17 -22 17 -14 0 -28 -5 -32 -12z"/>
<path d="M5715 5240 c-9 -17 -14 -37 -12 -43 3 -7 12 5 21 27 21 47 14 60 -9
16z"/>
<path d="M4965 5249 c4 -6 14 -8 22 -4 13 4 14 3 4 -9 -7 -9 -21 -18 -32 -21
-11 -4 -17 -11 -14 -16 4 -5 22 3 41 18 26 19 32 28 22 34 -19 12 -50 11 -43
-2z"/>
<path d="M5552 5251 c-7 -4 -24 -6 -38 -3 -15 3 -24 0 -24 -8 0 -7 8 -10 20
-7 11 3 20 1 20 -4 0 -5 -7 -9 -15 -9 -8 0 -15 -4 -15 -10 0 -5 9 -10 20 -10
11 0 20 5 20 10 0 6 7 10 16 10 10 0 14 6 11 14 -3 8 -1 17 6 20 7 2 8 5 2 5
-5 0 -16 -3 -23 -8z"/>
<path d="M5675 5244 c-11 -9 -29 -22 -39 -30 -11 -7 -17 -16 -14 -20 10 -9 66
24 78 46 13 24 3 25 -25 4z"/>
<path d="M5067 5233 c-4 -3 -7 -11 -7 -17 0 -6 5 -5 12 2 6 6 9 14 7 17 -3 3
-9 2 -12 -2z"/>
<path d="M5097 5233 c-10 -9 -9 -23 2 -23 5 0 11 7 15 15 5 15 -5 20 -17 8z"/>
<path d="M5056 5184 c-3 -9 -6 -28 -6 -42 0 -21 2 -24 10 -12 5 8 10 26 11 40
0 23 1 23 8 5 5 -11 5 -27 0 -36 -6 -13 -3 -18 11 -22 21 -5 28 7 10 18 -6 3
-6 15 0 29 5 13 6 27 3 30 -12 12 -41 6 -47 -10z"/>
<path d="M4965 5179 c-4 -6 -5 -12 -2 -15 2 -3 7 2 10 11 7 17 1 20 -8 4z"/>
<path d="M5651 5171 c-12 -12 -21 -27 -21 -33 0 -7 12 0 27 14 15 15 24 30 21
34 -4 3 -16 -4 -27 -15z"/>
<path d="M5615 5175 c-5 -2 -29 -9 -52 -15 -47 -12 -58 -30 -18 -30 30 0 85
26 85 40 0 6 -1 10 -2 9 -2 0 -7 -2 -13 -4z"/>
<path d="M5060 5101 c0 -6 5 -13 10 -16 6 -3 10 1 10 9 0 9 -4 16 -10 16 -5 0
-10 -4 -10 -9z"/>
<path d="M5090 5080 c0 -11 7 -20 15 -20 17 0 18 2 9 24 -9 23 -24 20 -24 -4z"/>
<path d="M5542 5055 c6 -14 13 -23 16 -21 7 7 -9 46 -18 46 -5 0 -4 -11 2 -25z"/>
<path d="M5125 5040 c-18 -8 -17 -9 7 -9 15 -1 30 4 33 9 7 12 -12 12 -40 0z"/>
<path d="M5319 5000 c-13 -10 -19 -19 -13 -20 7 0 22 9 35 20 13 10 19 19 13
20 -7 0 -22 -9 -35 -20z"/>
<path d="M5243 4903 c9 -11 14 -22 11 -26 -3 -3 4 -3 15 0 12 3 20 6 19 7 -2
1 -16 10 -33 21 -30 18 -30 18 -12 -2z"/>
<path d="M4905 4770 c-18 -35 -13 -37 26 -9 34 24 37 39 9 39 -12 0 -26 -12
-35 -30z"/>
<path d="M4702 4715 c-12 -9 -29 -29 -37 -45 -41 -80 8 -160 98 -160 37 0 51
8 60 32 8 23 -7 32 -23 13 -19 -23 -66 -19 -84 7 -22 31 -21 101 2 121 24 22
60 22 85 0 18 -17 19 -17 15 12 -3 28 -6 30 -48 33 -29 2 -53 -3 -68 -13z"/>
<path d="M4859 4726 c-2 -2 -3 -52 -1 -110 l3 -106 64 0 c56 0 64 3 70 21 9
28 4 31 -32 17 -42 -16 -63 -5 -63 32 0 28 3 30 35 30 24 0 35 5 35 15 0 10
-11 15 -35 15 -32 0 -35 2 -35 30 0 28 3 30 34 30 19 0 38 -5 42 -12 5 -8 10
-6 14 8 4 10 6 22 3 27 -4 7 -126 10 -134 3z"/>
<path d="M5020 4620 l0 -110 64 0 c57 0 64 2 69 22 8 28 3 32 -21 19 -12 -6
-30 -11 -41 -11 -20 0 -21 6 -21 95 0 95 0 95 -25 95 l-25 0 0 -110z"/>
<path d="M5206 4633 c-21 -54 -40 -104 -43 -110 -3 -8 3 -13 15 -13 15 0 21 9
26 35 7 33 9 35 46 35 37 0 39 -2 46 -35 5 -28 11 -35 30 -35 12 0 25 3 27 8
2 4 -12 52 -33 107 -51 138 -64 138 -114 8z m52 -31 c-29 -5 -31 2 -17 45 l13
38 11 -40 c11 -37 10 -40 -7 -43z"/>
<path d="M5332 4718 c3 -7 20 -57 39 -110 45 -130 56 -129 103 7 41 120 40
115 22 115 -9 0 -24 -28 -39 -77 -25 -78 -25 -78 -37 -48 -6 17 -16 51 -22 78
-10 43 -14 47 -41 47 -19 0 -28 -4 -25 -12z"/>
<path d="M5548 4702 c-27 -25 -32 -36 -32 -81 -1 -47 2 -56 32 -82 46 -42 93
-40 138 5 98 98 -35 249 -138 158z m102 -17 c21 -25 24 -92 6 -120 -18 -28
-57 -33 -76 -10 -21 25 -24 92 -6 120 18 28 57 33 76 10z"/>
<path d="M5743 4620 c0 -102 1 -110 19 -110 18 0 19 5 12 71 -8 85 -4 85 62
-6 66 -93 74 -88 74 45 0 99 -2 110 -18 110 -16 0 -17 -8 -14 -72 l3 -73 -53
73 c-75 103 -85 99 -85 -38z"/>
<path d="M4685 4408 c2 -7 9 -32 15 -55 6 -24 15 -43 20 -43 5 0 13 19 17 43
l7 42 11 -38 c6 -21 15 -38 20 -38 5 0 15 19 22 43 15 51 16 58 4 58 -5 0 -12
-17 -17 -37 l-8 -38 -10 38 c-11 42 -29 44 -34 4 -4 -36 -19 -34 -27 3 -4 17
-11 30 -15 30 -5 0 -7 -6 -5 -12z"/>
<path d="M4830 4364 c0 -34 4 -53 10 -49 6 3 10 15 10 26 0 32 38 24 43 -8 2
-16 4 -1 4 32 0 33 -2 50 -4 38 -6 -30 -43 -32 -43 -3 0 11 -4 20 -10 20 -5 0
-10 -25 -10 -56z"/>
<path d="M4938 4369 c-1 -28 0 -53 5 -56 4 -2 7 21 7 51 0 70 -7 73 -12 5z"/>
<path d="M4983 4413 c13 -3 17 -15 17 -54 0 -31 4 -48 10 -44 6 3 10 26 10 50
0 33 4 45 18 48 9 3 -3 5 -28 5 -25 0 -37 -2 -27 -5z"/>
<path d="M5070 4365 c0 -54 0 -55 30 -55 17 0 30 5 30 10 0 6 -11 10 -25 10
-31 0 -33 25 -2 35 l22 8 -22 4 c-32 6 -29 31 5 36 25 4 25 4 -5 6 l-33 1 0
-55z"/>
<path d="M5190 4365 c0 -35 4 -54 10 -50 6 3 10 18 11 33 l1 27 10 -27 c12
-34 21 -35 36 -5 l11 22 0 -22 c1 -12 6 -25 11 -28 6 -4 10 15 10 49 0 64 -13
72 -31 21 -16 -43 -24 -44 -35 -3 -16 55 -34 46 -34 -17z"/>
<path d="M5310 4384 c0 -44 15 -74 38 -74 30 0 42 22 41 70 -1 25 -3 34 -6 20
-9 -60 -14 -70 -33 -70 -17 0 -20 7 -20 45 0 25 -4 45 -10 45 -5 0 -10 -16
-10 -36z"/>
<path d="M5427 4413 c-15 -14 -6 -40 18 -51 33 -15 33 -36 0 -29 -16 3 -24 0
-22 -7 5 -16 36 -20 52 -6 23 19 18 38 -15 55 -32 17 -32 40 1 30 11 -4 19 -2
19 4 0 12 -43 15 -53 4z"/>
<path d="M5512 4413 c13 -3 18 -18 21 -56 l3 -52 2 52 c2 40 6 53 20 56 9 3
-1 5 -23 5 -22 0 -32 -2 -23 -5z"/>
<path d="M5599 4393 c-6 -16 -13 -41 -15 -58 -4 -25 -3 -27 6 -12 14 22 46 22
54 1 14 -38 15 -4 1 44 -18 58 -31 65 -46 25z m31 -24 c0 -5 -4 -9 -10 -9 -5
0 -10 7 -10 16 0 8 5 12 10 9 6 -3 10 -10 10 -16z"/>
<path d="M5681 4363 c2 -54 2 -56 8 -18 l7 40 23 -37 c13 -21 27 -35 32 -32
12 7 11 104 -1 104 -5 0 -10 -17 -10 -37 l0 -38 -22 38 c-12 20 -26 37 -30 37
-4 0 -7 -26 -7 -57z"/>
<path d="M5791 4406 c-17 -20 -10 -77 12 -90 22 -14 51 3 55 33 3 16 -2 21
-20 20 -13 0 -17 -3 -10 -6 19 -8 14 -33 -7 -33 -24 0 -36 32 -21 60 12 23 30
26 49 8 11 -11 13 -10 9 2 -6 20 -52 25 -67 6z"/>
<path d="M313 6203 c9 -2 25 -2 35 0 9 3 1 5 -18 5 -19 0 -27 -2 -17 -5z"/>
<path d="M5162 3943 c-40 -58 -57 -164 -30 -191 43 -43 118 57 118 159 0 58
-55 78 -88 32z m58 -8 c15 -18 6 -74 -20 -126 -22 -42 -48 -57 -57 -32 -8 22
13 120 32 149 18 28 28 30 45 9z"/>
<path d="M5020 3941 c-15 -30 -12 -36 9 -17 11 10 28 16 38 14 16 -3 14 -8
-14 -37 -40 -39 -42 -55 -8 -47 34 9 41 -13 20 -58 -19 -39 -40 -46 -61 -18
-12 16 -13 15 -14 -5 0 -26 27 -43 53 -34 45 16 73 105 42 131 -13 11 -12 16
5 40 29 40 25 50 -20 50 -29 0 -42 -5 -50 -19z"/>
<path d="M5455 3908 c-21 -67 -31 -163 -18 -171 13 -8 122 18 136 32 19 19 2
21 -56 4 -32 -9 -60 -13 -64 -10 -5 6 13 105 33 175 4 13 2 22 -4 22 -6 0 -18
-24 -27 -52z"/>
<path d="M5277 3848 c-15 -59 -22 -107 -17 -112 5 -5 13 10 20 35 6 24 15 55
19 69 7 24 8 23 15 -13 9 -50 24 -44 59 24 15 30 25 45 22 34 -10 -44 -24
-149 -20 -153 10 -11 25 13 25 41 0 18 7 59 14 92 8 33 12 63 10 67 -13 20
-32 3 -59 -49 l-29 -58 -9 55 c-5 30 -12 58 -16 63 -4 4 -19 -39 -34 -95z"/>
</g>
</svg>
